# xmcd
# 
# Track frame offsets:
#     150
#     26190
#     46110
#     69300
#     95735
#     110315
#     128242
#     152320
#     181247
#     207865
# 
# Disc length: 3370
# 
# Revision: 2
# Processed by: cddbd v1.5.2PL0 Copyright (c) Steve Scherf et al.
# Submitted via: BonkEnc v1.0.15
# 
DISCID=7c0d280a
DTITLE=Jesus Volt - In stereo
DYEAR=2006
DGENRE=Rock
TTITLE0=Voodoo in a motel room
TTITLE1=I won't get down
TTITLE2=Jungle blues
TTITLE3=Up in flames
TTITLE4=Only the devil
TTITLE5=Devil in a red tuxedo
TTITLE6=Little green men
TTITLE7=Jesus gonna be here
TTITLE8=Jackass blues
TTITLE9=John the revelator
EXTD=
EXTT0=
EXTT1=
EXTT2=
EXTT3=
EXTT4=
EXTT5=
EXTT6=
EXTT7=
EXTT8=
EXTT9=
PLAYORDER=
